:FULLY-SPECIFIED
:FORCE-ALL-JOINTS-BE-3DOF
:DEGREES
510
root -4.8392 15.0344 -42.2191 364.53 -3.15174 347.87
lfemur -54.5975 34.7638 -17.6649
ltibia 72.1197 0 0
lfoot -24.2833 31.4209 0
ltoes 10.4354 0 0
rfemur -17.7158 -13.7233 6.22465
rtibia 55.1338 0 0
rfoot 6.1842 -16.7738 0
rtoes 8.36364 0 0
lowerback 15.6157 0.942931 -5.11555
upperback -1.27613 0.642706 3.78766
thorax -10.3237 0.725676 6.92486
lowerneck 3.96003 -14.8263 -17.2638
upperneck 4.00451 -21.5229 20.0955
head 4.76883 -10.9217 7.63895
lclavicle -2.48208e-14 -8.99263e-15 0
lhumerus 6.33434 -60.6682 83.3603
lradius 83.7778 0 0
lwrist 31.9078 0 0
lhand -6.04146 38.3732 0
lfingers 7.12502 0 0
lthumb 19.7788 67.1925 0
rclavicle -2.48208e-14 -8.99263e-15 0
rhumerus 61.8509 31.185 -22.7688
rradius 109.611 0 0
rwrist -27.5772 0 0
rhand 5.6346 -15.758 0
rfingers 7.12502 0 0
rthumb 30.9586 -43.0214 0
511
root -4.90249 15.0224 -42.2442 364.238 -6.10187 348.378
lfemur -52.2504 33.645 -16.2672
ltibia 71.6845 0 0
lfoot -23.8697 30.501 0
ltoes 8.52961 0 0
rfemur -19.0782 -14.2616 6.11613
rtibia 55.4079 0 0
rfoot 5.40754 -15.5298 0
rtoes 7.39701 0 0
lowerback 15.7746 1.01282 -5.29294
upperback -1.21224 0.678651 3.67111
thorax -10.3506 0.747024 6.88895
lowerneck 3.56379 -14.5814 -17.2363
upperneck 4.48425 -21.1409 19.6457
head 4.86067 -10.7183 7.51071
lclavicle -2.20722e-14 -9.20088e-15 0
lhumerus 2.34119 -58.157 85.2273
lradius 84.9234 0 0
lwrist 33.8455 0 0
lhand -6.98499 38.9652 0
lfingers 7.12502 0 0
lthumb 18.8702 67.853 0
rclavicle -2.20722e-14 -9.20088e-15 0
rhumerus 57.7764 31.0709 -24.7694
rradius 109.966 0 0
rwrist -27.8957 0 0
rhand 6.24398 -15.9094 0
rfingers 7.12502 0 0
rthumb 31.5371 -43.0415 0
512
root -4.96578 15.0103 -42.2693 363.947 -9.052 348.887
lfemur -49.9032 32.5262 -14.8695
ltibia 71.2494 0 0
lfoot -23.4561 29.5811 0
ltoes 6.6238 0 0
rfemur -20.4406 -14.7999 6.00761
rtibia 55.682 0 0
rfoot 4.63088 -14.2858 0
rtoes 6.43037 0 0
lowerback 15.9334 1.08272 -5.47034
upperback -1.14834 0.714597 3.55456
thorax -10.3774 0.768371 6.85304
lowerneck 3.16756 -14.3364 -17.2088
upperneck 4.96399 -20.7589 19.1958
head 4.95252 -10.515 7.38247
lclavicle -1.93235e-14 -9.40913e-15 0
lhumerus -1.65197 -55.6458 87.0943
lradius 86.0689 0 0
lwrist 35.7832 0 0
lhand -7.92853 39.5571 0
lfingers 7.12502 0 0
lthumb 17.9616 68.5135 0
rclavicle -1.93235e-14 -9.40913e-15 0
rhumerus 53.7018 30.9567 -26.7699
rradius 110.321 0 0
rwrist -28.2143 0 0
rhand 6.85335 -16.0608 0
rfingers 7.12502 0 0
rthumb 32.1155 -43.0615 0
513
root -5.02907 14.9983 -42.2945 363.656 -12.0021 349.395
lfemur -47.5561 31.4074 -13.4718
ltibia 70.8142 0 0
lfoot -23.0425 28.6612 0
ltoes 4.71799 0 0
rfemur -21.8029 -15.3382 5.89908
rtibia 55.9562 0 0
rfoot 3.85422 -13.0418 0
rtoes 5.46374 0 0
lowerback 16.0923 1.15261 -5.64773
upperback -1.08444 0.750542 3.438
thorax -10.4042 0.789719 6.81712
lowerneck 2.77132 -14.0914 -17.1814
upperneck 5.44374 -20.3769 18.7459
head 5.04437 -10.3116 7.25423
lclavicle -1.65748e-14 -9.61737e-15 0
lhumerus -5.64512 -53.1345 88.9612
lradius 87.2144 0 0
lwrist 37.7209 0 0
lhand -8.87206 40.1491 0
lfingers 7.12502 0 0
lthumb 17.053 69.1739 0
rclavicle -1.65748e-14 -9.61737e-15 0
rhumerus 49.6273 30.8426 -28.7704
rradius 110.676 0 0
rwrist -28.5328 0 0
rhand 7.46273 -16.2123 0
rfingers 7.12502 0 0
rthumb 32.6939 -43.0816 0
514
root -5.09236 14.9862 -42.3196 363.364 -14.9523 349.903
lfemur -45.209 30.2886 -12.0741
ltibia 70.379 0 0
lfoot -22.6289 27.7413 0
ltoes 2.81217 0 0
rfemur -23.1653 -15.8765 5.79056
rtibia 56.2303 0 0
rfoot 3.07756 -11.7978 0
rtoes 4.49711 0 0
lowerback 16.2511 1.22251 -5.82513
upperback -1.02055 0.786487 3.32145
thorax -10.4311 0.811067 6.78121
lowerneck 2.37509 -13.8464 -17.1539
upperneck 5.92348 -19.9949 18.2961
head 5.13621 -10.1083 7.12599
lclavicle -1.38262e-14 -9.82562e-15 0
lhumerus -9.63827 -50.6233 90.8282
lradius 88.3599 0 0
lwrist 39.6586 0 0
lhand -9.81559 40.7411 0
lfingers 7.12502 0 0
lthumb 16.1444 69.8344 0
rclavicle -1.38262e-14 -9.82562e-15 0
rhumerus 45.5527 30.7284 -30.771
rradius 111.031 0 0
rwrist -28.8514 0 0
rhand 8.0721 -16.3637 0
rfingers 7.12502 0 0
rthumb 33.2724 -43.1016 0
515
root -5.15565 14.9742 -42.3447 363.073 -17.9024 350.412
lfemur -42.8619 29.1698 -10.6765
ltibia 69.9438 0 0
lfoot -22.2153 26.8214 0
ltoes 0.906357 0 0
rfemur -24.5277 -16.4148 5.68204
rtibia 56.5044 0 0
rfoot 2.3009 -10.5538 0
rtoes 3.53048 0 0
lowerback 16.41 1.2924 -6.00252
upperback -0.956652 0.822432 3.2049
thorax -10.4579 0.832415 6.7453
lowerneck 1.97885 -13.6014 -17.1264
upperneck 6.40322 -19.6129 17.8462
head 5.22806 -9.90496 6.99775
lclavicle -1.10775e-14 -1.00339e-14 0
lhumerus -13.6314 -48.1121 92.6952
lradius 89.5054 0 0
lwrist 41.5963 0 0
lhand -10.7591 41.3331 0
lfingers 7.12502 0 0
lthumb 15.2358 70.4949 0
rclavicle -1.10775e-14 -1.00339e-14 0
rhumerus 41.4782 30.6143 -32.7715
rradius 111.386 0 0
rwrist -29.1699 0 0
rhand 8.68148 -16.5151 0
rfingers 7.12502 0 0
rthumb 33.8508 -43.1217 0
516
root -5.21893 14.9621 -42.3698 362.782 -20.8525 350.92
lfemur -40.5147 28.0511 -9.27878
ltibia 69.5087 0 0
lfoot -21.8016 25.9016 0
ltoes -0.999457 0 0
rfemur -25.89 -16.9532 5.57352
rtibia 56.7785 0 0
rfoot 1.52425 -9.30984 0
rtoes 2.56384 0 0
lowerback 16.5688 1.36229 -6.17992
upperback -0.892756 0.858378 3.08834
thorax -10.4848 0.853762 6.70938
lowerneck 1.58262 -13.3564 -17.099
upperneck 6.88297 -19.231 17.3964
head 5.3199 -9.70161 6.86952
lclavicle -8.32881e-15 -1.02421e-14 0
lhumerus -17.6246 -45.6008 94.5622
lradius 90.6509 0 0
lwrist 43.5341 0 0
lhand -11.7027 41.925 0
lfingers 7.12502 0 0
lthumb 14.3272 71.1553 0
rclavicle -8.32881e-15 -1.02421e-14 0
rhumerus 37.4036 30.5001 -34.7721
rradius 111.74 0 0
rwrist -29.4885 0 0
rhand 9.29085 -16.6666 0
rfingers 7.12502 0 0
rthumb 34.4292 -43.1417 0
517
root -5.28222 14.9501 -42.3949 362.491 -23.8026 351.429
lfemur -38.1676 26.9323 -7.8811
ltibia 69.0735 0 0
lfoot -21.388 24.9817 0
ltoes -2.90527 0 0
rfemur -27.2524 -17.4915 5.465
rtibia 57.0526 0 0
rfoot 0.747586 -8.06585 0
rtoes 1.59721 0 0
lowerback 16.7277 1.43219 -6.35731
upperback -0.82886 0.894323 2.97179
thorax -10.5116 0.87511 6.67347
lowerneck 1.18638 -13.1114 -17.0715
upperneck 7.36271 -18.849 16.9465
head 5.41175 -9.49827 6.74128
lclavicle -5.58014e-15 -1.04504e-14 0
lhumerus -21.6177 -43.0896 96.4292
lradius 91.7964 0 0
lwrist 45.4718 0 0
lhand -12.6462 42.517 0
lfingers 7.12502 0 0
lthumb 13.4186 71.8158 0
rclavicle -5.58014e-15 -1.04504e-14 0
rhumerus 33.3291 30.386 -36.7726
rradius 112.095 0 0
rwrist -29.807 0 0
rhand 9.90023 -16.818 0
rfingers 7.12502 0 0
rthumb 35.0076 -43.1618 0
